<?xml version="1.0" encoding="UTF-8" standalone="no"?>
<svg width="24px" height="24px" viewBox="0 0 24 24" version="1.1" xmlns="http://www.w3.org/2000/svg" xmlns:xlink="http://www.w3.org/1999/xlink">
    <!-- Generator: Sketch 47.1 (45422) - http://www.bohemiancoding.com/sketch -->
    <title>下载模板1</title>
    <desc>Created with Sketch.</desc>
    <defs></defs>
    <g id="切图" stroke="none" stroke-width="1" fill="none" fill-rule="evenodd">
        <g id="Artboard" transform="translate(-192.000000, -475.000000)">
            <g id="下载模板1" transform="translate(193.000000, 476.000000)">
                <g id="Group-2" transform="translate(4.000000, 5.000000)" fill="#128DFF">
                    <g id="下载">
                        <path d="M3.45986667,5.64285714 L7.00000001,9.16492857 L10.5401333,5.64285714 L8.86666667,5.64285714 C8.60906667,5.64285714 8.40000001,5.43485714 8.40000001,5.17857143 L8.40000001,1 L5.60000001,1 L5.60000001,5.17857143 C5.60000001,5.43485714 5.39093334,5.64285714 5.13333334,5.64285714 L3.45986667,5.64285714 Z M13.5333334,13.0714286 L0.466666676,13.0714286 C0.209066662,13.0714286 0,12.8634286 0,12.6071429 C0,12.3508571 0.209066662,12.1428571 0.466666663,12.1428571 L13.5333333,12.1428571 C13.7909333,12.1428571 14,12.3508571 14,12.6071429 C14,12.8634286 13.7909334,13.0714286 13.5333334,13.0714286 Z" id="Shape" fill-rule="nonzero"></path>
                        <path d="M7.13374883,10.2142857 C7.01428217,10.2142857 6.89481549,10.1687857 6.80334883,10.0787143 L2.13668217,5.43585715 C2.00321549,5.30214285 1.96308217,5.10342856 2.03588217,4.92978571 C2.10774883,4.75614285 2.27854883,4.64285714 2.46708217,4.64285714 L4.80041549,4.64285714 L4.80041549,0.46428571 C4.80041549,0.207999996 5.00948215,0 5.26708216,0 L9.0004155,0 C9.2580155,-1.36021205e-08 9.46708217,0.207999996 9.46708217,0.46428571 L9.46708217,4.64285714 L11.8004155,4.64285714 C11.9889489,4.64285714 12.1597489,4.75614285 12.2316155,4.92978571 C12.3034822,5.10342857 12.2633489,5.30307143 12.1308155,5.43585714 L7.46414885,10.0787143 C7.37268217,10.1687857 7.2532155,10.2142857 7.13374883,10.2142857 Z" id="Path"></path>
                    </g>
                </g>
                <rect id="Rectangle-10" stroke="#128DFF" x="0" y="0" width="22" height="22" rx="2"></rect>
            </g>
        </g>
    </g>
</svg>