<?xml version="1.0" standalone="no"?><!DOCTYPE svg PUBLIC "-//W3C//DTD SVG 1.1//EN" "http://www.w3.org/Graphics/SVG/1.1/DTD/svg11.dtd"><svg t="1535423508385" class="icon" style="" viewBox="0 0 1024 1024" version="1.1" xmlns="http://www.w3.org/2000/svg" p-id="3452" xmlns:xlink="http://www.w3.org/1999/xlink" width="64" height="64"><defs><style type="text/css"></style></defs><path d="M925.7 513.7v-3.8c-0.3-88.9-72.3-161-161.2-161.2H559c-88.9 0.3-160.9 72.3-161.2 161.2v3.8c0 7.4 0.6 14.6 1.6 21.8h75.2c-1.9-7.1-2.8-14.4-2.8-21.8v-3.8c0-48.2 39.1-87.3 87.3-87.3h205.4c48.2 0 87.3 39.1 87.3 87.3v3.8c-0.1 48.2-39.1 87.3-87.3 87.3h-92.9c-11.8 27.8-29.1 52.9-50.8 73.9h143.7c89-0.3 161-72.3 161.2-161.2z m-299.8-3.8c0-7.3-0.5-14.5-1.5-21.7h-75.2c1.8 7 2.8 14.3 2.8 21.8v3.8c0 48.2-39.1 87.3-87.3 87.3H259.4c-48.2 0-87.3-39.1-87.3-87.3V510c0.1-48.2 39.1-87.3 87.3-87.3h92.9c11.8-27.8 29.1-52.9 50.8-73.9l-143.7-0.1C170.3 348.9 98.3 421 98 509.9v3.8c0.3 88.9 72.3 160.9 161.2 161.2h205.4c88.9-0.3 161-72.3 161.2-161.2l0.1-3.8z" p-id="3453" fill="#389CFF"></path></svg>