<?xml version="1.0" standalone="no"?><!DOCTYPE svg PUBLIC "-//W3C//DTD SVG 1.1//EN" "http://www.w3.org/Graphics/SVG/1.1/DTD/svg11.dtd"><svg t="1528456800612" class="icon" style="" viewBox="0 0 1024 1024" version="1.1" xmlns="http://www.w3.org/2000/svg" p-id="83356" xmlns:xlink="http://www.w3.org/1999/xlink" width="200" height="200"><defs><style type="text/css"></style></defs><path d="M325.323367 773.171278c0-25.876344-21.007453-46.744627-46.883797-46.744627H153.510256c-25.876344 0-46.883797 21.007453-46.883797 46.744627s21.007453 46.744627 46.883797 46.744627h124.929314c25.876344 0 46.883797-20.868283 46.883797-46.744627zM153.510256 290.00907h124.929314c25.876344 0 46.883797-21.007453 46.883797-46.744627 0-25.876344-21.007453-46.744627-46.883797-46.744627H153.510256c-25.876344 0-46.883797 20.868283-46.883797 46.744627 0 25.737174 21.007453 46.744627 46.883797 46.744627zM106.626459 508.287445c0 25.876344 21.007453 46.744627 46.883797 46.744627h124.929314c25.876344 0 46.883797-20.868283 46.883797-46.744627s-21.007453-46.744627-46.883797-46.744627H153.510256c-25.876344-0.138146-46.883797 20.868283-46.883797 46.744627z" p-id="83357"></path><path d="M852.444762 56.144718H247.136633c-25.879414 0-46.879704 20.871353-46.879703 46.744627v46.744627h78.04347c51.746548 0 93.77271 41.877783 93.77271 93.490278s-41.877783 93.490278-93.77271 93.490277h-77.908394v77.908394h78.043471c51.758828 0 93.77271 41.871643 93.77271 93.484138 0 51.618635-41.877783 93.490278-93.77271 93.490278h-78.043471V679.406754h78.043471c51.758828 0 93.77271 41.871643 93.77271 93.625354 0 51.612495-41.877783 93.490278-93.77271 93.490278h-78.043471v46.744627c0 25.873274 21.012569 46.738487 46.879704 46.738487H852.592119c35.613102 0 64.680115-21.00029 64.680114-46.738487V102.890368c-0.135076-25.873274-29.067013-46.74565-64.827471-46.74565zM766.028601 570.537208h-98.68765v114.815979c0 16.59291-14.343683 30.04734-32.045857 30.047339-17.689894 0-32.033577-13.45443-32.033577-30.047339V570.537208h-92.558046c-17.689894 0-32.033577-13.45443-32.033577-30.04734 0-16.59905 14.343683-30.05348 32.033577-30.05348h92.558046V477.047953h-92.558046c-17.689894 0-32.033577-13.46057-32.033577-30.047339 0-16.59905 14.343683-30.05348 32.033577-30.05348h48.351218L488.194828 352.358093c-12.687974-11.56029-12.982686-30.587646-0.662079-42.490743 12.332886-11.904121 32.621978-12.173251 45.310975-0.61296l102.415554 93.342921 102.439091-93.250824c12.652158-11.615549 32.92897-11.426237 45.310975 0.434905 12.382005 11.855002 12.173251 30.881334-0.465605 42.496883l-70.380953 64.667836h53.708225c17.702174 0 32.045857 13.45443 32.045857 30.053479 0 16.58677-14.343683 30.04734-32.045857 30.04734h-98.529037v33.388435h98.68765c17.689894 0 32.033577 13.45443 32.033577 30.05348-0.001023 16.593933-14.344706 30.048363-32.0346 30.048363z" p-id="83358"></path></svg>