<?xml version="1.0" standalone="no"?><!DOCTYPE svg PUBLIC "-//W3C//DTD SVG 1.1//EN" "http://www.w3.org/Graphics/SVG/1.1/DTD/svg11.dtd"><svg t="1528458094276" class="icon" style="" viewBox="0 0 1024 1024" version="1.1" xmlns="http://www.w3.org/2000/svg" p-id="150006" xmlns:xlink="http://www.w3.org/1999/xlink" width="200" height="200"><defs><style type="text/css"></style></defs><path d="M852.531 485.683a330.598 330.598 0 0 0-332.441-331.52 330.598 330.598 0 0 0-332.442 331.52c0 144.282 92.416 267.06 221.645 313.088C338.534 823.296 292.3 869.427 292.3 921.6h446.31c0-52.224-43.059-98.304-110.745-122.829C760.269 752.794 852.53 630.016 852.53 485.683zM526.285 719.002c-95.488 0-175.514-79.872-175.514-175.002s80.026-174.95 175.514-174.95A175.155 175.155 0 0 1 701.798 544a175.206 175.206 0 0 1-175.513 175.002z" p-id="150007"></path><path d="M520.09 467.302c-46.183 0-86.119 39.936-86.119 85.914 0 49.1 39.936 85.914 86.119 85.914a85.914 85.914 0 0 0 0-171.828z" p-id="150008"></path></svg>