<?xml version="1.0" standalone="no"?><!DOCTYPE svg PUBLIC "-//W3C//DTD SVG 1.1//EN" "http://www.w3.org/Graphics/SVG/1.1/DTD/svg11.dtd"><svg t="1528456627429" class="icon" style="" viewBox="0 0 1024 1024" version="1.1" xmlns="http://www.w3.org/2000/svg" p-id="71892" xmlns:xlink="http://www.w3.org/1999/xlink" width="200" height="200"><defs><style type="text/css"></style></defs><path d="M919.30624 315.1872v-73.82016c0-37.39648-30.95552-67.52256-69.36576-67.52256H171.7248c-38.41024 0-69.36576 30.11584-69.36576 67.52256v74.45504c1.86368-0.3072 4.01408-0.63488 6.18496-0.63488h810.76224zM593.26464 511.71328c142.72512-116.95104 326.05184-46.41792 326.05184-46.41792v-94.93504H108.544c-2.17088 0-4.32128-0.29696-6.18496-0.60416v412.3136c0 37.36576 30.95552 67.5328 69.36576 67.5328h352.78848s-74.01472-220.91776 68.75136-337.88928z" p-id="71893"></path><path d="M751.48288 502.07744c-105.59488 0-191.05792 83.18976-191.05792 185.9584 0 102.5024 85.47328 185.97888 191.05792 185.97888s191.04768-83.21024 191.04768-185.97888-85.46304-185.9584-191.04768-185.9584z m108.32896 68.85376l-54.30272 95.3344h33.71008c11.07968 0 19.8144 8.5504 19.8144 18.54464 0 10.40384-9.13408 18.56512-19.8144 18.56512h-59.06432v18.18624h59.43296c11.1104 0 19.82464 8.51968 19.82464 18.55488 0 10.37312-9.1136 18.5344-19.82464 18.5344h-59.05408v55.64416c0 10.3936-9.1136 18.55488-19.8144 18.55488-11.10016 0-19.83488-8.54016-19.83488-18.55488v-55.2448h-59.0336c-11.1104 0-19.84512-8.56064-19.84512-18.56512 0-10.3936 9.1136-18.55488 19.84512-18.55488h59.0336v-18.55488h-59.0336c-11.1104 0-19.84512-8.52992-19.84512-18.56512 0-10.37312 9.1136-18.54464 19.84512-18.54464h43.58144l-54.31296-95.3344c-4.74112-8.89856-1.1776-20.00896 8.33536-24.85248 9.51296-4.4544 21.4016-1.09568 26.56256 7.80288l53.504 94.22848h11.88864l53.504-94.22848c5.16096-9.27744 17.0496-12.60544 26.5728-7.80288 9.90208 4.84352 13.48608 15.95392 8.32512 24.85248z" p-id="71894"></path></svg>