<?xml version="1.0" standalone="no"?><!DOCTYPE svg PUBLIC "-//W3C//DTD SVG 1.1//EN" "http://www.w3.org/Graphics/SVG/1.1/DTD/svg11.dtd"><svg t="1535523242444" class="icon" style="" viewBox="0 0 1024 1024" version="1.1" xmlns="http://www.w3.org/2000/svg" p-id="4300" xmlns:xlink="http://www.w3.org/1999/xlink" width="128" height="128"><defs><style type="text/css"></style></defs><path d="M915.456 790.601143l97.865143 97.792a36.571429 36.571429 0 0 1-51.785143 51.785143l-97.792-97.865143a329.142857 329.142857 0 1 1 51.712-51.712zM36.571429 73.142857h877.714285a36.571429 36.571429 0 1 1 0 73.142857H36.571429a36.571429 36.571429 0 0 1 0-73.142857z m0 365.714286h219.428571a36.571429 36.571429 0 0 1 0 73.142857h-219.428571a36.571429 36.571429 0 0 1 0-73.142857z m0 365.714286H292.571429a36.571429 36.571429 0 1 1 0 73.142857H36.571429a36.571429 36.571429 0 1 1 0-73.142857z m621.714285 36.571428a256 256 0 1 0 0-512 256 256 0 0 0 0 512z" p-id="4301" fill="#389CFF"></path></svg>