<?xml version="1.0" standalone="no"?><!DOCTYPE svg PUBLIC "-//W3C//DTD SVG 1.1//EN" "http://www.w3.org/Graphics/SVG/1.1/DTD/svg11.dtd"><svg t="1528459368596" class="icon" style="" viewBox="0 0 1024 1024" version="1.1" xmlns="http://www.w3.org/2000/svg" p-id="5452" xmlns:xlink="http://www.w3.org/1999/xlink" width="200" height="200"><defs><style type="text/css"></style></defs><path d="M987.40736 778.61376c0-109.37856-88.66816-198.04672-198.04672-198.04672-109.37856 0-198.04672 88.66304-198.04672 198.04672s88.66304 198.05184 198.04672 198.05184C898.73408 976.6656 987.40736 887.99744 987.40736 778.61376zM858.77248 835.55328c-3.62496 8.02816-8.24832 14.74048-13.89056 20.13184-5.64224 5.38112-11.62752 9.28768-17.97632 11.71968-6.34368 2.42176-14.11072 3.86048-23.296 4.3008l0 25.0112-16.34816 0 0-25.0112c-10.97728-1.152-19.88096-3.24096-26.71104-6.29248-6.8352-3.04128-12.72832-7.24992-17.69984-12.63104-4.96128-5.38112-8.79104-11.18208-11.47904-17.39776-2.68288-6.2208-4.70016-13.74208-6.04672-22.56896l45.24544-6.2208c1.34656 8.73984 3.15392 15.04768 5.43232 18.92864 2.2784 3.88096 6.03136 7.3216 11.25888 10.32192l0-46.76096c-15.0784-4.95104-25.7792-9.23136-32.09216-12.8512s-11.78112-9.4208-16.40448-17.408c-4.62848-7.99232-6.94272-17.72032-6.94272-29.19936 0-15.7184 4.64896-28.8512 13.94688-39.3984s23.12704-16.38912 41.49248-17.54112l0-13.11232 16.34816 0 0 13.11232c16.72192 1.2288 29.51168 5.90848 38.35904 14.01856 8.84736 8.12032 14.61248 19.24096 17.30048 33.35168l-41.66144 7.808c-2.08896-6.272-3.97312-10.60864-5.65248-13.04064-1.67936-2.42176-4.46464-4.86912-8.3456-7.34208l0 38.28224c22.70208 7.15776 37.85728 14.69952 45.47072 22.65088 10.08128 10.68032 15.11936 24.22784 15.11936 40.64768C864.2048 818.68288 862.39744 827.51488 858.77248 835.55328z" p-id="5453"></path><path d="M149.63712 289.9968c17.49504 14.06976 38.78912 27.01824 63.86176 38.8864 25.07264 11.86304 52.32128 21.98016 81.77152 30.32064 29.44 8.36096 61.6704 14.72512 96.70144 19.10784l-0.00512 0c35.01056 4.41344 70.82496 6.58944 107.43296 6.58944 74.01984 0 142.06464-8.56576 204.1344-25.70752 62.08-17.13664 111.21664-40.40704 147.4304-69.8624 36.20864-29.43488 54.31808-61.73184 54.31808-96.88576 0-26.36288-10.74176-51.40992-32.22528-75.136-21.48864-23.72608-50.33984-44.16-86.54848-61.29664-36.21888-17.13664-79.39072-30.75072-129.52576-40.86272C606.848 5.0688 554.32192 0 499.40992 0 426.17856 0 358.54336 8.57088 296.46336 25.70752 234.38848 42.83904 185.2416 66.13504 149.03296 95.56992 112.81408 125.02016 94.72 157.31712 94.72 192.45056c0 17.5872 4.77696 34.72384 14.32064 51.40992C118.59456 260.56704 132.1216 275.94752 149.63712 289.9968z" p-id="5454"></path><path d="M573.8496 874.9056c-24.00768 1.99168-48.8192 2.9952-74.43968 2.9952-103.47008 0-193.59232-16.256-270.39232-48.77312-76.80512-32.50688-121.5744-72.9344-134.29248-121.27232l0 119.95648c5.5552 51.85536 47.33952 95.5648 125.34272 131.15392 77.98784 35.58912 171.10016 53.38624 279.34208 53.38624 68.05504 0 130.20672-7.05024 186.46528-21.12C636.01152 966.90176 596.08576 925.56288 573.8496 874.9056z" p-id="5455"></path><path d="M844.40576 510.1312c36.59776-28.1088 56.89344-59.3152 60.89216-93.58848L905.29792 292.6336l-0.00512 0c-11.1616 48.34304-55.3216 89.20576-132.51072 122.58816-77.19936 33.408-168.13568 50.08896-272.77312 50.08896-104.6528 0-195.77344-16.68096-273.37216-50.08896C149.03296 381.83936 105.05728 340.97664 94.72 292.6336l0 123.90912c5.56032 51.86048 47.33952 95.5648 125.34784 131.15904 77.98272 35.58912 171.10016 53.38624 279.34208 53.38624 59.61728 0 115.46112-5.7088 167.63904-16.97792 31.53408-19.11296 67.96288-31.0272 106.95168-33.5104C800.99328 538.8288 824.54528 525.38368 844.40576 510.1312z" p-id="5456"></path><path d="M905.2928 498.26816c-3.18464 12.3136-8.36608 24.17664-15.51872 35.58912-6.37952 10.18368-14.44352 19.82464-23.9872 28.94848 13.79328 4.72576 27.00288 10.69056 39.50592 17.76128L905.2928 498.26816z" p-id="5457"></path><path d="M585.82016 666.71616c-3.13856 0.31744-6.24128 0.66048-9.41056 0.93696l0 0.00512c-25.06752 2.20672-50.73408 3.29728-76.99968 3.29728-104.2688 0-194.99008-16.47616-272.1792-49.42848-77.2096-32.95744-121.37472-74.01984-132.51072-123.24864l0 123.90912c5.5552 51.8656 47.33952 95.5648 125.34784 131.15392 77.98272 35.58912 171.10016 53.38624 279.34208 53.38624 19.00544 0 37.71904-0.64 56.17664-1.86368-0.71168-7.35232-1.10592-14.78656-1.10592-22.31296C554.48064 740.3776 565.92384 700.84608 585.82016 666.71616z" p-id="5458"></path><path d="M774.00064 550.59456c-38.98368 2.4832-75.41248 14.39744-106.95168 33.5104 10.50624-2.26816 20.9152-4.67968 31.11936-7.40352C726.03136 569.26208 751.22688 560.52224 774.00064 550.59456z" p-id="5459"></path></svg>