<?xml version="1.0" standalone="no"?><!DOCTYPE svg PUBLIC "-//W3C//DTD SVG 1.1//EN" "http://www.w3.org/Graphics/SVG/1.1/DTD/svg11.dtd"><svg t="1528456985702" class="icon" style="" viewBox="0 0 1024 1024" version="1.1" xmlns="http://www.w3.org/2000/svg" p-id="97837" xmlns:xlink="http://www.w3.org/1999/xlink" width="200" height="200"><defs><style type="text/css"></style></defs><path d="M976.39444 400.901094l-164.60007-314.822381a43.357257 43.357257 0 0 0-38.415354-23.264517H240.708276a43.357257 43.357257 0 0 0-38.415353 23.264517L37.692853 400.901094a43.350032 43.350032 0 0 0 5.845029 48.70376l430.935441 490.411684a43.350032 43.350032 0 0 0 65.126197 0l430.935441-490.411684a43.350032 43.350032 0 0 0 5.859479-48.70376z m-184.194285 20.56959L539.216595 701.685289a43.335582 43.335582 0 0 1-64.345897 0L221.872688 421.470684a43.350032 43.350032 0 1 1 64.360347-58.096268l220.810611 244.573654 220.810612-244.573654a43.350032 43.350032 0 1 1 64.345897 58.096268z" fill="" p-id="97838"></path></svg>