<?xml version="1.0" encoding="UTF-8" standalone="no"?>
<svg width="14px" height="13px" viewBox="0 0 14 13" version="1.1" xmlns="http://www.w3.org/2000/svg" xmlns:xlink="http://www.w3.org/1999/xlink">
    <!-- Generator: Sketch 47.1 (45422) - http://www.bohemiancoding.com/sketch -->
    <title>下载2</title>
    <desc>Created with Sketch.</desc>
    <defs></defs>
    <g id="切图" stroke="none" stroke-width="1" fill="none" fill-rule="evenodd">
        <g id="Artboard" transform="translate(-236.000000, -481.000000)" fill="#128DFF">
            <g id="下载2" transform="translate(236.000000, 481.000000)">
                <path d="M3.45986667,5.57142856 L7.00000001,9.09349999 L10.5401333,5.57142856 L8.86666667,5.57142856 C8.60906667,5.57142856 8.40000001,5.36342856 8.40000001,5.10714285 L8.40000001,0.92857142 L5.60000001,0.92857142 L5.60000001,5.10714285 C5.60000001,5.36342856 5.39093334,5.57142856 5.13333334,5.57142856 L3.45986667,5.57142856 Z M13.5333334,13 L0.466666676,13 C0.209066662,13 0,12.792 0,12.5357143 C0,12.2794286 0.209066662,12.0714286 0.466666663,12.0714286 L13.5333333,12.0714286 C13.7909333,12.0714286 14,12.2794286 14,12.5357143 C14,12.792 13.7909334,13 13.5333334,13 Z" id="Shape" fill-rule="nonzero"></path>
                <path d="M7.00000001,10.2142857 C6.88053334,10.2142857 6.76106667,10.1687857 6.66960001,10.0787143 L2.00293334,5.43585715 C1.86946666,5.30214285 1.82933334,5.10342856 1.90213334,4.92978571 C1.974,4.75614285 2.1448,4.64285714 2.33333334,4.64285714 L4.66666667,4.64285714 L4.66666667,0.46428571 C4.66666667,0.207999996 4.87573333,0 5.13333333,0 L8.86666667,0 C9.12426667,-1.36021205e-08 9.33333335,0.207999996 9.33333335,0.46428571 L9.33333335,4.64285714 L11.6666667,4.64285714 C11.8552,4.64285714 12.026,4.75614285 12.0978667,4.92978571 C12.1697333,5.10342857 12.1296,5.30307143 11.9970667,5.43585714 L7.33040002,10.0787143 C7.23893334,10.1687857 7.11946667,10.2142857 7.00000001,10.2142857 Z" id="Path"></path>
            </g>
        </g>
    </g>
</svg>