<?xml version="1.0" standalone="no"?><!DOCTYPE svg PUBLIC "-//W3C//DTD SVG 1.1//EN" "http://www.w3.org/Graphics/SVG/1.1/DTD/svg11.dtd"><svg t="1536288793961" class="icon" style="" viewBox="0 0 1024 1024" version="1.1" xmlns="http://www.w3.org/2000/svg" p-id="3084" xmlns:xlink="http://www.w3.org/1999/xlink" width="128" height="128"><defs><style type="text/css"></style></defs><path d="M850.895238 960.609524H141.409524c-70.704762 0-126.780952-56.07619-126.780953-126.780953V216.990476C14.628571 146.285714 70.704762 90.209524 141.409524 90.209524h709.485714c70.704762 0 126.780952 56.07619 126.780952 126.780952v616.838095c0 70.704762-56.07619 126.780952-126.780952 126.780953z" fill="#FFFFFF" p-id="3085"></path><path d="M941.104762 126.780952c-24.380952-24.380952-53.638095-36.571429-87.771429-36.571428h-53.638095c4.87619 9.752381 7.314286 19.504762 7.314286 31.695238v63.390476c0 34.133333-26.819048 60.952381-58.514286 60.952381H246.247619c-34.133333 0-60.952381-29.257143-60.952381-60.952381V121.904762c0-9.752381 2.438095-21.942857 7.314286-31.695238H138.971429C70.704762 90.209524 14.628571 146.285714 14.628571 214.552381v621.714286c0 68.266667 56.07619 124.342857 124.342858 124.342857h419.352381c-75.580952-117.028571-56.07619-273.066667 51.2-365.714286 104.838095-92.647619 263.314286-90.209524 368.15238 2.438095V214.552381c0-34.133333-12.190476-63.390476-36.571428-87.771429zM433.980952 714.361905H234.057143c-26.819048 0-48.761905-21.942857-48.761905-48.761905s21.942857-48.761905 48.761905-48.761905h199.923809c26.819048 0 48.761905 21.942857 48.761905 48.761905s-21.942857 48.761905-48.761905 48.761905z m141.409524-209.676191h-341.333333c-26.819048 0-48.761905-21.942857-48.761905-48.761904s21.942857-48.761905 48.761905-48.761905h341.333333c26.819048 0 48.761905 21.942857 48.761905 48.761905s-21.942857 48.761905-48.761905 48.761904z" fill="#0098FF" p-id="3086"></path><path d="M382.780952 185.295238h248.685715c34.133333 0 60.952381-26.819048 63.390476-60.952381V63.390476c0-17.066667-7.314286-31.695238-19.504762-43.885714S648.533333 2.438095 631.466667 2.438095H382.780952c-17.066667 0-31.695238 7.314286-43.885714 17.066667-12.190476 12.190476-19.504762 26.819048-19.504762 43.885714v60.952381c2.438095 31.695238 29.257143 60.952381 63.390476 60.952381zM792.380952 587.580952c-119.466667 0-216.990476 97.52381-216.990476 216.990477s97.52381 216.990476 216.990476 216.990476 216.990476-97.52381 216.990477-216.990476c0-58.514286-21.942857-112.152381-63.390477-153.6-41.447619-41.447619-97.52381-63.390476-153.6-63.390477z" fill="#0098FF" p-id="3087"></path><path d="M885.028571 865.52381h-124.342857c-17.066667 0-31.695238-14.628571-31.695238-31.695239v-109.714285c0-17.066667 14.628571-31.695238 31.695238-31.695238 17.066667 0 31.695238 14.628571 31.695238 31.695238v41.447619c0 17.066667 14.628571 31.695238 31.695238 31.695238h60.952381c17.066667 0 31.695238 14.628571 31.695239 31.695238v7.314286c-2.438095 17.066667-14.628571 29.257143-31.695239 29.257143z" fill="#0098FF" p-id="3088"></path></svg>