<?xml version="1.0" standalone="no"?><!DOCTYPE svg PUBLIC "-//W3C//DTD SVG 1.1//EN" "http://www.w3.org/Graphics/SVG/1.1/DTD/svg11.dtd"><svg t="1528696060537" class="icon" style="" viewBox="0 0 1024 1024" version="1.1" xmlns="http://www.w3.org/2000/svg" p-id="20706" xmlns:xlink="http://www.w3.org/1999/xlink" width="200" height="200"><defs><style type="text/css"></style></defs><path d="M502.086721 469.451952a267.951705 267.951705 0 0 1 4.062526-4.433986 279.030018 279.030018 0 0 1 3.716648-3.913123l0.1361-0.138146a292.125267 292.125267 0 0 1 16.008602-15.291265c0.24764-0.220011 0.49221-0.441045 0.74292-0.657986a300.69341 300.69341 0 0 1 3.616364-3.12313c0.352017-0.298805 0.704035-0.597611 1.057076-0.8913 1.197268-1.010003 2.403746-2.013867 3.616364-3.00545l0.883113-0.711198a292.577568 292.577568 0 0 1 11.984962-9.184173c0.416486-0.302899 0.831948-0.610914 1.25048-0.911766a294.173926 294.173926 0 0 1 3.370771-2.37714c0.606821-0.421602 1.212618-0.843204 1.821485-1.25969a280.729729 280.729729 0 0 1 3.26844-2.207272c0.654916-0.436952 1.318018-0.86981 1.980097-1.301645 1.089821-0.711198 2.180666-1.424442 3.28072-2.120291 0.63138-0.401136 1.270946-0.794086 1.90642-1.188058 2.738367-1.709945 5.505387-3.387144 8.305153-5.002944v-38.718837c0-26.630521-21.603017-48.221258-48.251958-48.221258H114.730533c-26.644847 0-48.247864 21.592784-48.247864 48.221258v48.219212c0 26.629497 21.605064 48.219211 48.247864 48.219211l387.356188-0.001023zM114.730533 565.891398v48.219211c0 26.629497 21.600971 48.219211 48.247864 48.219211h265.36888c0-2.216481 0.032746-4.427846 0.084934-6.635117a288.626583 288.626583 0 0 1 0.291642-8.18338c0.004093-0.124843 0.013303-0.249687 0.020466-0.372483a288.956088 288.956088 0 0 1 0.517793-7.840572c0.169869-2.140757 0.355087-4.27435 0.571005-6.399757 0.022513-0.23843 0.051165-0.477884 0.077771-0.716315a299.641451 299.641451 0 0 1 0.874927-7.469111c0.270153-2.072195 0.555655-4.136204 0.866741-6.19612 0.054235-0.356111 0.113587-0.711198 0.171915-1.068331 0.276293-1.77339 0.568958-3.540639 0.87595-5.302773 0.107447-0.601704 0.211824-1.201361 0.321318-1.803065 0.363274-1.995447 0.73985-3.984754 1.14201-5.966899 0.096191-0.465604 0.198521-0.932232 0.298805-1.399883 0.336668-1.620917 0.691755-3.237741 1.057076-4.849448 0.14224-0.635473 0.287549-1.27504 0.433882-1.911536 0.450255-1.914606 0.912789-3.823072 1.398859-5.723351 0.147356-0.567935 0.300852-1.1328 0.448208-1.696642 0.387833-1.475608 0.786922-2.950192 1.197268-4.418636 0.189312-0.677429 0.376577-1.357927 0.569982-2.03331a277.880845 277.880845 0 0 1 1.62808-5.464455c0.200568-0.657986 0.412392-1.308809 0.62217-1.963724 0.425695-1.338485 0.856507-2.673899 1.299599-4.002151 0.240477-0.720408 0.477884-1.440815 0.724501-2.158153a292.397467 292.397467 0 0 1 1.832741-5.206582c0.265036-0.729617 0.541329-1.454118 0.811482-2.180665 0.453325-1.214664 0.909719-2.421142 1.38044-3.627621 0.293689-0.756223 0.583285-1.514493 0.883114-2.267646 0.662079-1.660826 1.337461-3.315512 2.029216-4.963035 0.329505-0.781806 0.666172-1.558495 1.000793-2.336208 0.476861-1.106194 0.960885-2.207271 1.446955-3.306303 0.347924-0.784876 0.695848-1.569752 1.052982-2.350534a265.694291 265.694291 0 0 1 2.211365-4.733814c0.387833-0.815575 0.788969-1.62501 1.186012-2.438539 0.499373-1.019213 1.00591-2.038426 1.518586-3.052522 0.401136-0.794086 0.798179-1.589195 1.204432-2.381234a281.566794 281.566794 0 0 1 2.396583-4.53734c0.446162-0.827855 0.898463-1.645476 1.350764-2.470261 0.531096-0.963954 1.068332-1.921769 1.610684-2.87856 0.446162-0.784876 0.88516-1.569752 1.335414-2.352581H162.978397c-26.646893-0.001023-48.247864 21.590737-48.247864 48.220235zM162.978397 276.56692h655.40306c26.641777 0 48.247864-21.589714 48.247864-48.219212v-48.219211c0-26.629497-21.606087-48.221258-48.247864-48.221258H162.978397c-26.644847 0-48.247864 21.591761-48.247864 48.221258v48.219211c0 26.631544 21.600971 48.219211 48.247864 48.219212zM717.836507 421.230694c-133.227304 0-241.243413 107.941408-241.243413 241.099126 0 133.149533 108.016109 241.101173 241.243413 241.101174 133.225257 0 241.243413-107.951641 241.243413-241.101174 0-133.158742-108.016109-241.099127-241.243413-241.099126z m96.497774 289.324478v-0.00307c13.33368 0 24.124444 10.80509 24.124444 24.110117 0 13.301957-10.791787 24.109094-24.124444 24.109094h-72.370261v50.644447c0 11.960403-10.791787 21.683858-24.125467 21.683858-13.335726 0-24.125467-9.723455-24.125466-21.683858v-50.644447h-72.373331c-13.335726 0-24.124444-10.807137-24.124444-24.109094 0-13.304004 10.788717-24.110117 24.124444-24.110117h72.370261v-48.221258h-72.370261c-13.335726 0-24.124444-10.803044-24.124444-24.109094 0-13.305027 10.788717-24.109094 24.124444-24.109094h49.514717l-46.263674-86.37523c-5.89015-10.960633-2.403746-24.984021 7.775081-31.302937 10.175757-6.334265 23.179932-2.576685 29.046546 8.378832l53.148478 99.242281c1.705851 3.181459 2.595105 6.619768 2.787486 10.05603h0.223081c0.193405-3.436262 1.101077-6.871501 2.833534-10.05603l53.995775-99.242281c5.959735-10.956539 19.153222-14.713097 29.496801-8.378832 10.316973 6.323009 13.853519 20.343327 7.890715 31.302937l-46.978965 86.37523h49.52495c13.335726 0 24.124444 10.80509 24.124444 24.109094 0 13.307074-10.788717 24.109094-24.124444 24.109094h-72.370261v48.223304h72.370261zM138.856 710.552102c-26.646893 0-48.249911 21.589714-48.249911 48.219211v48.219211c0 26.630521 21.603017 48.221258 48.249911 48.221258h363.230721c-35.678594-39.838334-60.46921-89.607854-69.715804-144.658657H138.856z" fill="" p-id="20707"></path></svg>