<?xml version="1.0" standalone="no"?><!DOCTYPE svg PUBLIC "-//W3C//DTD SVG 1.1//EN" "http://www.w3.org/Graphics/SVG/1.1/DTD/svg11.dtd"><svg t="1528458165533" class="icon" style="" viewBox="0 0 1024 1024" version="1.1" xmlns="http://www.w3.org/2000/svg" p-id="151241" xmlns:xlink="http://www.w3.org/1999/xlink" width="200" height="200"><defs><style type="text/css"></style></defs><path d="M844.8 134.4L147.2 486.4c-32 12.8-19.2 44.8-6.4 51.2L307.2 640c12.8 6.4 25.6 6.4 44.8-6.4l396.8-332.8 12.8 6.4-364.8 358.4c-6.4 6.4-6.4 12.8-6.4 19.2v153.6c0 12.8 6.4 25.6 19.2 32 12.8 6.4 25.6 0 32-6.4l83.2-83.2 166.4 108.8c19.2 12.8 51.2 12.8 57.6-19.2L896 179.2c6.4-38.4-19.2-57.6-51.2-44.8z" p-id="151242"></path></svg>