<?xml version="1.0" standalone="no"?><!DOCTYPE svg PUBLIC "-//W3C//DTD SVG 1.1//EN" "http://www.w3.org/Graphics/SVG/1.1/DTD/svg11.dtd"><svg t="1528695903343" class="icon" style="" viewBox="0 0 1024 1024" version="1.1" xmlns="http://www.w3.org/2000/svg" p-id="13252" xmlns:xlink="http://www.w3.org/1999/xlink" width="200" height="200"><defs><style type="text/css"></style></defs><path d="M947.2 716.8V768l-58.291 19.43c-2.908 9.336-6.441 18.396-11 26.865l27.41 54.82-36.206 36.204-55.619-27.809c-8.271 4.329-16.85 8.148-25.915 10.954L768.003 947.2H716.8l-19.579-58.737c-9.065-2.806-17.644-6.625-25.915-10.954l-55.619 27.809-36.206-36.204 27.41-54.822c-4.559-8.466-8.09-17.526-11-26.862L537.603 768v-51.2l58.289-19.43c2.911-9.336 6.441-18.396 11.003-26.862l-27.412-54.82 36.206-36.204 55.616 27.807c8.274-4.329 16.853-8.148 25.917-10.957L716.8 537.6h51.203l19.574 58.734c9.068 2.808 17.646 6.628 25.92 10.957l55.616-27.807 36.206 36.204-27.412 54.817c4.562 8.469 8.095 17.528 11.003 26.865l58.29 19.43z m-204.8-51.2c-42.417 0-76.8 34.383-76.8 76.8 0 42.414 34.383 76.8 76.8 76.8 42.414 0 76.8-34.386 76.8-76.8 0-42.417-34.386-76.8-76.8-76.8z m-25.6-179.2h-36.902l-11.671 35.008-7.741 23.235-21.903-10.954-33.009-16.499-26.094 26.091-36.198 36.206-26.094 26.089 16.502 33.009 10.949 21.901-23.227 7.744-35.013 11.668V793.6H179.2c-56.556 0-102.4-45.844-102.4-102.4v-512c0-56.553 45.844-102.4 102.4-102.4h512c56.553 0 102.4 45.847 102.4 102.4v307.2H716.8zM217.6 588.8h179.2c21.21 0 38.4-17.193 38.4-38.4 0-21.207-17.19-38.4-38.4-38.4H217.6c-21.207 0-38.4 17.193-38.4 38.4 0 21.207 17.193 38.4 38.4 38.4z m0-153.6h307.2c21.207 0 38.4-17.19 38.4-38.4 0-21.21-17.193-38.4-38.4-38.4H217.6c-21.207 0-38.4 17.19-38.4 38.4 0 21.21 17.193 38.4 38.4 38.4z m435.2-230.4H217.6c-21.207 0-38.4 17.193-38.4 38.4s17.193 38.4 38.4 38.4h435.2c21.207 0 38.4-17.193 38.4-38.4s-17.193-38.4-38.4-38.4z" fill="" p-id="13253"></path></svg>