<?xml version="1.0" standalone="no"?><!DOCTYPE svg PUBLIC "-//W3C//DTD SVG 1.1//EN" "http://www.w3.org/Graphics/SVG/1.1/DTD/svg11.dtd"><svg t="1528456532563" class="icon" style="" viewBox="0 0 1024 1024" version="1.1" xmlns="http://www.w3.org/2000/svg" p-id="66369" xmlns:xlink="http://www.w3.org/1999/xlink" width="200" height="200"><defs><style type="text/css"></style></defs><path d="M887.255081 754.662739c-34.511002-34.530444-101.449553-101.468996-101.449553-101.468996L785.805528 450.29259l-0.040932 0c0-0.051165 0.002047-0.102331 0.002047-0.153496 0-107.390869-66.666352-199.794395-162.321946-240.945631 0.020466-0.795109 0.032746-1.592264 0.032746-2.39249 0-56.024991-49.961902-101.449553-111.612007-101.449553-61.630662 0-111.593588 45.425585-111.593588 101.449553 0 0.787946 0.013303 1.573845 0.032746 2.357697-95.692433 41.132816-162.398694 133.557832-162.398694 240.980423 0 0.966001 0.026606 1.924839 0.037862 2.888793l0 200.165856-101.449553 101.468996c0 0-19.552312 34.3309 20.286022 40.569998l243.954151 0c-0.300852 3.342118-0.463558 6.723122-0.463558 10.143011 0 61.630662 49.962925 111.594611 111.593588 111.594611 61.650105 0 111.612007-49.963948 111.612007-111.594611 0-3.419889-0.162706-6.800893-0.463558-10.143011 243.36882 0 243.954151 0 243.954151 0S906.807393 789.171694 887.255081 754.662739zM511.865435 145.942907c26.060539 0 47.50392 19.627013 50.390667 44.896536-16.347317-2.929726-33.199123-4.477988-50.428529-4.477988-17.195637 0-34.015721 1.542122-50.333362 4.461615C464.388121 165.561733 485.828432 145.942907 511.865435 145.942907zM336.81049 307.931255c22.047132-23.735587 44.817742-32.287357 45.774533-32.639375 7.958252-2.924609 16.778128 1.154289 19.704784 9.109472 2.916423 7.930623-1.127683 16.720823-9.031701 19.675108-0.453325 0.176009-18.008142 7.113001-34.970466 25.856901-22.804379 25.196869-34.026978 59.040674-33.353642 100.592023 0.138146 8.476045-6.622838 15.458063-15.099906 15.59621-1.695618 0.027629-3.333932-0.222057-4.868891-0.706081-6.128581-1.933025-10.616802-7.613398-10.726296-14.392802C293.22174 368.260272 316.827367 329.443198 336.81049 307.931255z" p-id="66370"></path></svg>