<?xml version="1.0" standalone="no"?><!DOCTYPE svg PUBLIC "-//W3C//DTD SVG 1.1//EN" "http://www.w3.org/Graphics/SVG/1.1/DTD/svg11.dtd"><svg t="1529380120704" class="icon" style="" viewBox="0 0 1024 1024" version="1.1" xmlns="http://www.w3.org/2000/svg" p-id="3283" xmlns:xlink="http://www.w3.org/1999/xlink" width="200" height="200"><defs><style type="text/css"></style></defs><path d="M512 120c11.5 0 22.5 3.5 31.9 10.1 9.3 6.6 16.3 15.7 20.3 26.3l9.4 25.2 25.6 8.4c27.7 9.1 53.7 22.4 77.3 39.6 23.4 17 44 37.4 61.1 60.7C773.2 338.5 792 395.8 792 456v241l9.4 14.1 54 80.9H630.2L617 829.2c-7.7 21.7-21.6 40.3-40.2 53.8-19 13.8-41.4 21-64.8 21s-45.8-7.2-64.7-20.9c-18.6-13.5-32.5-32.1-40.2-53.8L393.8 792H168.6l54-80.9L232 697V456c0-60.2 18.8-117.5 54.4-165.7 17.2-23.3 37.7-43.7 61.1-60.7 23.7-17.2 49.7-30.5 77.3-39.6l25.6-8.4 9.4-25.2c4-10.7 11-19.8 20.3-26.3 9.4-6.6 20.4-10.1 31.9-10.1m0-56c-48 0-88.6 30.4-104.6 72.8C273.1 180.8 176 307 176 456v224l-54 80.9c-24.8 37.2 1.9 87.1 46.6 87.1h185.7C377.4 913.1 439 960 512 960s134.6-46.9 157.7-112h185.7c44.7 0 71.4-49.8 46.6-87.1L848 680V456c0-149-97.1-275.2-231.4-319.2C600.6 94.4 560 64 512 64z" p-id="3284"></path><path d="M680 792H344v56h336v-56z" p-id="3285"></path></svg>