<?xml version="1.0" standalone="no"?><!DOCTYPE svg PUBLIC "-//W3C//DTD SVG 1.1//EN" "http://www.w3.org/Graphics/SVG/1.1/DTD/svg11.dtd"><svg t="1529478952693" class="icon" style="" viewBox="0 0 1024 1024" version="1.1" xmlns="http://www.w3.org/2000/svg" p-id="24080" xmlns:xlink="http://www.w3.org/1999/xlink" width="200" height="200"><defs><style type="text/css"></style></defs><path d="M0 198.777l0 433.692c0 84.328 68.266 152.595 152.595 152.595l228.895 0 8.032 192.753L614.4 785.064l257.003 0c84.328 0 152.595-68.266 152.595-152.595L1023.998 198.777c0-84.328-68.266-152.595-152.595-152.595L152.599 46.182c-84.328 0-152.595 68.266-152.595 152.595L0 198.777zM658.57 439.717c0-40.158 32.125-72.282 72.282-72.282 40.157 0 72.282 32.125 72.282 72.282 0 40.158-32.125 72.282-72.282 72.282C690.694 511.999 658.57 479.874 658.57 439.717L658.57 439.717zM437.708 439.717c0-40.158 32.125-72.282 72.282-72.282s72.282 32.125 72.282 72.282c0 40.158-32.125 72.282-72.282 72.282C469.832 511.999 437.708 479.874 437.708 439.717zM220.864 439.717c0-40.158 32.125-72.282 72.282-72.282s72.282 32.125 72.282 72.282c0 40.158-32.125 72.282-72.282 72.282C252.987 511.999 220.864 479.874 220.864 439.717z" p-id="24081"></path></svg>