<?xml version="1.0" encoding="utf-8"?>
<!-- Generator: Adobe Illustrator 19.0.0, SVG Export Plug-In . SVG Version: 6.00 Build 0)  -->
<svg version="1.1" id="图层_1" xmlns="http://www.w3.org/2000/svg" xmlns:xlink="http://www.w3.org/1999/xlink" x="0px" y="0px"
	 viewBox="-166 305 58 58" style="enable-background:new -166 305 58 58;" xml:space="preserve">
<style type="text/css">
	.st0{fill:#C3D1EB;}
	.st1{fill:#FFFFFF;}
</style>
<title>评审组通过-2</title>
<desc>Created with Sketch.</desc>
<g id="切图">
	<g id="Artboard" transform="translate(-39.000000, -532.000000)">
		<g id="评审组通过-2" transform="translate(39.000000, 532.000000)">
			<circle id="Oval" class="st0" cx="-137" cy="334" r="25"/>
			<g id="审核通过-_x28_1_x29_" transform="translate(14.000000, 14.000000)">
				<path id="Shape" class="st1" d="M-162,319c0-3,0-4.2,0-7.2c0-2.6,1.5-2.8,2.9-2.8h11.5c2.2,0,2.9,0.8,2.9,2.9v1.4
					c0,1.1-1.4,1-1.4,0v-1.4c0-1.1-0.3-1.4-1.5-1.4h-11.5c-1.2,0-1.4,0.2-1.4,1.4v14.3c0,0.8,0.4,1.4,1.4,1.4c1.7,0,1.1,0,2.9,0
					c0.9,0,0.9,1.4,0,1.4c-0.9,0-1.7,0-3.4,0c-1,0-1.9-0.6-2.2-1.6c-0.1-0.3-0.1-0.6-0.1-0.8C-162,323.6-162,322.1-162,319"/>
				<path id="Shape_1_" class="st1" d="M-147.3,331c-4,0-7.2-3.2-7.2-7.2c0-4,3.2-7.2,7.3-7.2c4,0,7.2,3.2,7.2,7.2
					C-140,327.8-143.2,331-147.3,331L-147.3,331z M-147.2,318.1c-3.2,0-5.8,2.6-5.8,5.7c0,3.2,2.6,5.7,5.8,5.7
					c3.2,0,5.8-2.5,5.8-5.7C-141.4,320.7-144,318.1-147.2,318.1L-147.2,318.1z M-148.7,313.8c1.2,0,1,1.5,0,1.5h-8.7
					c-1.1,0-1-1.5,0-1.5C-154.5,313.8-149.8,313.8-148.7,313.8z M-155.9,318.1c1.2,0,1,1.5,0,1.5h-1.4c-1.1,0-1-1.5,0-1.5
					C-154.5,318.1-157,318.1-155.9,318.1z"/>
				<path id="Shape_2_" class="st1" d="M-144,321.7c-0.3-0.3-0.8-0.3-1,0l-3.2,3.1l-1-0.9c-0.3-0.3-0.8-0.3-1,0
					c-0.3,0.3-0.3,0.7,0,1l1.5,1.4c0.1,0.1,0.3,0.2,0.5,0.2c0.2,0,0.4-0.1,0.5-0.2c0,0,0,0,0.1-0.1c0,0,0,0,0.1-0.1l3.6-3.5
					C-143.8,322.4-143.8,322-144,321.7L-144,321.7z"/>
			</g>
		</g>
	</g>
</g>
</svg>
