<?xml version="1.0" encoding="UTF-8" standalone="no"?>
<svg width="48px" height="48px" viewBox="0 0 48 48" version="1.1" xmlns="http://www.w3.org/2000/svg" xmlns:xlink="http://www.w3.org/1999/xlink">
    <!-- Generator: Sketch 50.2 (55047) - http://www.bohemiancoding.com/sketch -->
    <title>播放图标</title>
    <desc>Created with Sketch.</desc>
    <defs>
        <filter x="-17.5%" y="-12.5%" width="135.0%" height="135.0%" filterUnits="objectBoundingBox" id="filter-1">
            <feOffset dx="0" dy="2" in="SourceAlpha" result="shadowOffsetOuter1"></feOffset>
            <feGaussianBlur stdDeviation="2" in="shadowOffsetOuter1" result="shadowBlurOuter1"></feGaussianBlur>
            <feColorMatrix values="0 0 0 0 0.746997236   0 0 0 0 0.746997236   0 0 0 0 0.746997236  0 0 0 0.5 0" type="matrix" in="shadowBlurOuter1" result="shadowMatrixOuter1"></feColorMatrix>
            <feMerge>
                <feMergeNode in="shadowMatrixOuter1"></feMergeNode>
                <feMergeNode in="SourceGraphic"></feMergeNode>
            </feMerge>
        </filter>
    </defs>
    <g id="发布产品" stroke="none" stroke-width="1" fill="none" fill-rule="evenodd">
        <g id="4-页面预览" transform="translate(-1333.000000, -977.000000)">
            <g id="件量预测缩略图“件量预测”" transform="translate(1063.000000, 869.000000)">
                <g id="播放图标" filter="url(#filter-1)" transform="translate(274.000000, 110.000000)">
                    <path d="M0,19.9999511 C0,31.0457235 8.95424948,40 20,40 C31.0456527,40 40,31.0457235 40,19.9999511 C40,8.9543254 31.0456527,0 20,0 C8.95429839,0 0,8.95427649 0,19.9999511 Z" id="Shape" fill="#FEFEFE" fill-rule="nonzero"></path>
                    <path d="M25.8767749,19.2304006 C23.7619569,17.7914173 19.92714,15.6375945 17.7435725,14.3030477 C16.8483344,13.7384995 16.095513,13.965216 16.0232746,14.9623297 C15.9709067,17.6330182 16.0232746,22.7860242 16.0232746,25.5029332 C16.0686977,26.5151658 16.9611447,26.648677 17.7356974,26.2422621 C19.916806,24.9208072 23.6654618,22.6497219 25.8576686,21.3215549 C25.8433804,21.3128491 27.5221429,20.3895353 25.8767749,19.2304006 Z" id="Path" fill="#000000"></path>
                </g>
            </g>
        </g>
    </g>
</svg>