<?xml version="1.0" encoding="utf-8"?>
<!-- Generator: Adobe Illustrator 19.0.0, SVG Export Plug-In . SVG Version: 6.00 Build 0)  -->
<svg version="1.1" id="图层_1" xmlns="http://www.w3.org/2000/svg" xmlns:xlink="http://www.w3.org/1999/xlink" x="0px" y="0px"
	 viewBox="-166 305 58 58" style="enable-background:new -166 305 58 58;" xml:space="preserve">
<style type="text/css">
	.st0{fill:#C3D1EB;}
	.st1{fill:#FFFFFF;}
</style>
<title>6</title>
<desc>Created with Sketch.</desc>
<g id="切图">
	<g id="Artboard" transform="translate(-240.000000, -202.000000)">
		<g id="_x36_" transform="translate(240.000000, 202.000000)">
			<circle id="Oval-Copy-2" class="st0" cx="-137" cy="334" r="25"/>
			<g id="上传-_x28_1_x29_" transform="translate(15.000000, 15.000000)">
				<path id="Shape" class="st1" d="M-141,321.6v5.8c0,0.5-0.4,0.9-1,0.9H-161c-0.5,0-1-0.4-1-0.9v-5.8c0-0.5,0.4-0.9,1-0.9
					s1,0.4,1,0.9v4.8h17.2v-4.8c0-0.5,0.4-0.9,1-0.9S-141,321-141,321.6z M-156,314.8c-0.2,0-0.3-0.2-0.2-0.3l4.4-5.3
					c0.1-0.1,0.2-0.1,0.3-0.1s0.2,0.1,0.3,0.1l4.4,5.3c0.2,0.2,0.1,0.3-0.2,0.3H-156z"/>
				<path id="Shape_1_" class="st1" d="M-150.6,322.1c0,0.3-0.2,0.6-0.4,0.8c-0.3,0.2-0.6,0.2-0.9,0c-0.3-0.2-0.4-0.5-0.4-0.8v-8.7
					c0-0.5,0.4-0.9,0.9-0.9s0.9,0.4,0.9,0.9V322.1z"/>
			</g>
		</g>
	</g>
</g>
</svg>
