<?xml version="1.0" encoding="UTF-8" standalone="no"?>
<svg width="14px" height="17px" viewBox="0 0 14 17" version="1.1" xmlns="http://www.w3.org/2000/svg" xmlns:xlink="http://www.w3.org/1999/xlink">
    <!-- Generator: Sketch 47.1 (45422) - http://www.bohemiancoding.com/sketch -->
    <title>单价</title>
    <desc>Created with Sketch.</desc>
    <defs>
        <path d="M2,3 L12,3 L12,3 C13.1045695,3 14,3.8954305 14,5 L14,15 L14,15 C14,16.1045695 13.1045695,17 12,17 L2,17 L2,17 C0.8954305,17 1.3527075e-16,16.1045695 0,15 L5.43782706e-17,5 L0,5 C-1.3527075e-16,3.8954305 0.8954305,3 2,3 Z" id="path-1"></path>
        <path d="M3,0 L11,0 L11,3.17239487 L9.23966091,3.17239487 L9.23966091,3.17239487 L9.23966091,3.17239487 C9.23966091,4.18175331 8.42141422,5 7.41205578,5 L6.46200935,5 L6.46200935,5 C5.45265091,5 4.63440422,4.18175331 4.63440422,3.17239487 L4.63440422,3.17239487 L3,3.17239487 L3,0 Z" id="path-2"></path>
    </defs>
    <g id="切图" stroke="none" stroke-width="1" fill="none" fill-rule="evenodd">
        <g id="Artboard" transform="translate(-39.000000, -36.000000)">
            <g id="单价" transform="translate(39.000000, 36.000000)">
                <g id="Path-12-Copy-3" transform="translate(7.000000, 10.000000) scale(1, -1) translate(-7.000000, -10.000000) ">
                    <use fill="#FFFFFF" fill-rule="evenodd" xlink:href="#path-1"></use>
                    <path stroke="#333333" stroke-width="1" d="M2,3.5 C1.17157288,3.5 0.5,4.17157288 0.5,5 L0.5,15 C0.5,15.8284271 1.17157288,16.5 2,16.5 L12,16.5 C12.8284271,16.5 13.5,15.8284271 13.5,15 L13.5,5 C13.5,4.17157288 12.8284271,3.5 12,3.5 L2,3.5 Z"></path>
                </g>
                <g id="Path-12-Copy-3" transform="translate(7.000000, 2.500000) scale(1, -1) translate(-7.000000, -2.500000) ">
                    <use fill="#80C2FF" fill-rule="evenodd" xlink:href="#path-2"></use>
                    <path stroke="#333333" stroke-width="1" d="M3.5,0.5 L3.5,2.67239487 L5.13440422,2.67239487 L5.13440422,3.17239487 C5.13440422,3.90561094 5.72879329,4.5 6.46200935,4.5 L7.41205578,4.5 C8.14527185,4.5 8.73966091,3.90561094 8.73966091,3.17239487 L8.73966091,2.67239487 L10.5,2.67239487 L10.5,0.5 L3.5,0.5 Z"></path>
                </g>
                <polygon id="¥" fill="#333333" points="5 8 6.632 10.872 5.448 10.872 5.448 11.4482976 6.856 11.4482976 6.856 12.056 5.448 12.056 5.448 12.614472 6.856 12.614472 6.856 13.712 7.56 13.712 7.56 12.614472 8.976 12.614472 8.976 12.056 7.56 12.056 7.56 11.4482976 8.976 11.4482976 8.976 10.872 7.784 10.872 9.416 8 8.624 8 7.208 10.624 5.792 8"></polygon>
            </g>
        </g>
    </g>
</svg>