<?xml version="1.0" standalone="no"?><!DOCTYPE svg PUBLIC "-//W3C//DTD SVG 1.1//EN" "http://www.w3.org/Graphics/SVG/1.1/DTD/svg11.dtd"><svg t="1529581686777" class="icon" style="" viewBox="0 0 1024 1024" version="1.1" xmlns="http://www.w3.org/2000/svg" p-id="1971" xmlns:xlink="http://www.w3.org/1999/xlink" width="200" height="200"><defs><style type="text/css"></style></defs><path d="M832 736l-249.6 153.6c-19.2 12.8-38.4 0-38.4-25.6L544 505.6c0-6.4 6.4-19.2 12.8-25.6l249.6-153.6c19.2-12.8 38.4 0 38.4 25.6l0 364.8C844.8 723.2 838.4 736 832 736z" p-id="1972"></path><path d="M192 736l249.6 153.6c19.2 12.8 38.4 0 38.4-25.6L480 505.6c0-6.4-6.4-19.2-12.8-25.6L217.6 326.4C204.8 320 179.2 332.8 179.2 352l0 364.8C179.2 723.2 185.6 736 192 736z" p-id="1973"></path><path d="M505.6 128 217.6 236.8c-12.8 6.4-12.8 25.6 0 32L505.6 448C512 448 518.4 448 518.4 448l294.4-179.2c12.8-6.4 12.8-25.6 0-32L518.4 128C512 128 512 128 505.6 128z" p-id="1974"></path></svg>