<?xml version="1.0" encoding="UTF-8" standalone="no"?>
<svg width="15px" height="18px" viewBox="0 0 15 18" version="1.1" xmlns="http://www.w3.org/2000/svg" xmlns:xlink="http://www.w3.org/1999/xlink">
    <!-- Generator: Sketch 47.1 (45422) - http://www.bohemiancoding.com/sketch -->
    <title>Shape</title>
    <desc>Created with Sketch.</desc>
    <defs></defs>
    <g id="切图" stroke="none" stroke-width="1" fill="none" fill-rule="evenodd">
        <g id="Artboard" transform="translate(-163.000000, -292.000000)" fill-rule="nonzero" fill="#7E8CA1">
            <path d="M173.125,307.75 C173.4625,307.75 173.6875,307.525 173.6875,307.1875 L173.6875,300.4375 C173.6875,300.1 173.4625,299.875 173.125,299.875 C172.7875,299.875 172.5625,300.1 172.5625,300.4375 L172.5625,307.1875 C172.5625,307.46875 172.7875,307.75 173.125,307.75 Z M170.3125,307.75 C170.65,307.75 170.875,307.525 170.875,307.1875 L170.875,300.4375 C170.875,300.1 170.65,299.875 170.3125,299.875 C169.975,299.875 169.75,300.1 169.75,300.4375 L169.75,307.1875 C169.75,307.46875 169.975,307.75 170.3125,307.75 Z M176.5,294.25 L173.125,294.25 L173.125,293.125 C173.125,292.50625 172.61875,292 172,292 L168.625,292 C168.00625,292 167.5,292.50625 167.5,293.125 L167.5,294.25 L164.125,294.25 C163.50625,294.25 163,294.75625 163,295.375 L163,296.5 C163,297.11875 163.50625,297.625 164.125,297.625 L164.125,307.75 C164.125,308.9875 165.1375,310 166.375,310 L174.25,310 C175.4875,310 176.5,308.9875 176.5,307.75 L176.5,297.625 C177.11875,297.625 177.625,297.11875 177.625,296.5 L177.625,295.375 C177.625,294.75625 177.11875,294.25 176.5,294.25 Z M168.625,293.6875 C168.625,293.35 168.85,293.125 169.1875,293.125 L171.4375,293.125 C171.775,293.125 172,293.35 172,293.6875 L172,294.25 L168.625,294.25 L168.625,293.6875 Z M175.375,307.75 C175.375,308.36875 174.86875,308.875 174.25,308.875 L166.375,308.875 C165.75625,308.875 165.25,308.36875 165.25,307.75 L165.25,297.625 L175.375,297.625 L175.375,307.75 Z M175.9375,296.5 L164.6875,296.5 C164.35,296.5 164.125,296.275 164.125,295.9375 C164.125,295.6 164.35,295.375 164.6875,295.375 L175.9375,295.375 C176.275,295.375 176.5,295.6 176.5,295.9375 C176.5,296.21875 176.275,296.5 175.9375,296.5 Z M167.5,307.75 C167.8375,307.75 168.0625,307.525 168.0625,307.1875 L168.0625,300.4375 C168.0625,300.1 167.8375,299.875 167.5,299.875 C167.1625,299.875 166.9375,300.1 166.9375,300.4375 L166.9375,307.1875 C166.9375,307.46875 167.1625,307.75 167.5,307.75 Z" id="Shape"></path>
        </g>
    </g>
</svg>