<?xml version="1.0" standalone="no"?><!DOCTYPE svg PUBLIC "-//W3C//DTD SVG 1.1//EN" "http://www.w3.org/Graphics/SVG/1.1/DTD/svg11.dtd"><svg t="1537516998816" class="icon" style="" viewBox="0 0 1171 1024" version="1.1" xmlns="http://www.w3.org/2000/svg" p-id="2226" xmlns:xlink="http://www.w3.org/1999/xlink" width="228.7109375" height="200"><defs><style type="text/css"></style></defs><path d="M1078.418286 520.850286c-16.457143 48.493714-46.811429 94.646857-91.721143 94.646857H327.826286l16.384 94.573714c3.584 26.185143-2.413714 47.323429 22.893714 47.323429h665.453714v70.948571H344.210286c-38.034286 0-62.390857-31.012571-68.827429-70.948571L164.425143 71.460571H0v-70.948571s141.312-1.097143 183.588571 0c18.432 0.365714 31.378286 26.770286 38.765715 47.250286h7.094857l16.384 94.646857h832.585143c63.634286 0 93.257143 27.574857 91.794285 94.573714l-91.794285 283.867429z m-22.893715-307.492572H258.121143l57.417143 331.190857h625.225143c39.350857 0 55.881143 11.702857 68.827428-23.698285l91.794286-260.169143c8.484571-49.590857-13.165714-47.323429-45.860572-47.323429zM438.857143 877.714286a73.142857 73.142857 0 1 1 0 146.285714 73.142857 73.142857 0 0 1 0-146.285714z m438.857143 0a73.142857 73.142857 0 1 1 0 146.285714 73.142857 73.142857 0 0 1 0-146.285714z" p-id="2227"></path></svg>