<?xml version="1.0" standalone="no"?><!DOCTYPE svg PUBLIC "-//W3C//DTD SVG 1.1//EN" "http://www.w3.org/Graphics/SVG/1.1/DTD/svg11.dtd"><svg t="1528458309633" class="icon" style="" viewBox="0 0 1024 1024" version="1.1" xmlns="http://www.w3.org/2000/svg" p-id="153189" xmlns:xlink="http://www.w3.org/1999/xlink" width="200" height="200"><defs><style type="text/css"></style></defs><path d="M508.92804 3.327956C225.283763 3.327956 0.00672 231.804958 0.00672 513.657258A510.329302 510.329302 0 1 0 508.92804 3.327956z m326.075721 372.667109s-310.971918 329.019682-350.715397 368.827159c-28.15963 28.15963-63.167171 18.431758-77.950977 3.775951L184.324301 545.208844a56.959252 56.959252 0 0 1 0-77.822978 50.559336 50.559336 0 0 1 74.047028 0L442.240916 632.631697c0-0.319996 318.715817-334.45961 318.715816-334.459611a50.559336 50.559336 0 0 1 74.047029 0 56.959252 56.959252 0 0 1 0 77.822979z" p-id="153190"></path></svg>