<?xml version="1.0" encoding="UTF-8" standalone="no"?>
<svg width="12px" height="12px" viewBox="0 0 12 12" version="1.1" xmlns="http://www.w3.org/2000/svg" xmlns:xlink="http://www.w3.org/1999/xlink">
    <!-- Generator: Sketch 47.1 (45422) - http://www.bohemiancoding.com/sketch -->
    <title>意见反馈-不可点</title>
    <desc>Created with Sketch.</desc>
    <defs></defs>
    <g id="切图" stroke="none" stroke-width="1" fill="none" fill-rule="evenodd">
        <g id="Artboard" transform="translate(-451.000000, -301.000000)">
            <g id="意见反馈-不可点" transform="translate(451.000000, 301.000000)">
                <path d="M12,7.49998443 C12,8.32837437 11.3283696,8.99998131 10.4999813,8.99998131 L6.74999691,8.99998131 L6.74999691,12 L3.74998443,9.00000623 L1.49999377,9.00000623 C0.671630443,9.00000623 0,8.32837439 0,7.50000934 L0,1.49999689 C0,0.671631838 0.671630443,0 1.49999377,0 L10.4999813,0 C11.3283944,0 12,0.671631838 12,1.49999689 L12,7.49998443 Z" id="Path" fill="#CCCCCC"></path>
                <polygon id="Shape" fill="#FFFFFF" fill-rule="nonzero" points="2 5 7 5 7 6 2 6 2 5"></polygon>
                <polygon id="Shape" fill="#FFFFFF" fill-rule="nonzero" points="2 3 9 3 9 4 2 4"></polygon>
            </g>
        </g>
    </g>
</svg>