<?xml version="1.0" standalone="no"?><!DOCTYPE svg PUBLIC "-//W3C//DTD SVG 1.1//EN" "http://www.w3.org/Graphics/SVG/1.1/DTD/svg11.dtd"><svg t="1529479657614" class="icon" style="" viewBox="0 0 1303 1024" version="1.1" xmlns="http://www.w3.org/2000/svg" p-id="24743" xmlns:xlink="http://www.w3.org/1999/xlink" width="254.4921875" height="200"><defs><style type="text/css"></style></defs><path d="M1252.838233 407.733734H51.978606a51.851071 51.851071 0 0 1-44.962418-24.668822 48.499835 48.499835 0 0 1 13.032585-63.859667L434.019529 11.077697a51.478711 51.478711 0 0 1 70.934499 9.30899 48.499835 48.499835 0 0 1-9.495169 69.072701l-295.094962 219.692149h1051.357258c26.34444 0 49.151464 19.176518 51.478711 44.776238a48.499835 48.499835 0 0 1-13.032585 37.701407 51.199441 51.199441 0 0 1-37.235958 16.104552zM838.960566 1023.988829a50.454722 50.454722 0 0 1-47.941295-33.512361 48.592924 48.592924 0 0 1 17.221631-54.923038l295.094962-219.692148H51.792426a50.733992 50.733992 0 0 1-51.478711-44.776239 48.499835 48.499835 0 0 1 13.032585-37.794497 51.199441 51.199441 0 0 1 37.329048-16.011462h1200.859627a51.757981 51.757981 0 0 1 44.962418 24.668822 48.499835 48.499835 0 0 1-13.125675 63.859667l-413.877666 308.127548A51.199441 51.199441 0 0 1 838.960566 1023.988829z" p-id="24744"></path></svg>