<?xml version="1.0" standalone="no"?><!DOCTYPE svg PUBLIC "-//W3C//DTD SVG 1.1//EN" "http://www.w3.org/Graphics/SVG/1.1/DTD/svg11.dtd"><svg t="1528458346418" class="icon" style="" viewBox="0 0 1024 1024" version="1.1" xmlns="http://www.w3.org/2000/svg" p-id="154411" xmlns:xlink="http://www.w3.org/1999/xlink" width="200" height="200"><defs><style type="text/css"></style></defs><path d="M263.44865185185176 929.3591387654321V485.0736039506173c0-13.463198024691359 7.249414320987654-25.89076543209876 18.641351111111113-33.14017975308642 102.52743111111113-62.13783703703704 284.79841975308636-218.5180602469136 284.79841975308636-351.0787792592592 0-6.213783703703703-7.249414320987654-85.95734123456789 52.81716148148148-85.95734123456789 0 0 153.2733313580247 36.24707160493827 57.99531456790123 414.25224691358017h269.26396049382714s61.10220641975309-5.178153086419753 61.10220641975309 63.17346765432097c0 0 3.1068918518518513 85.95734123456789-86.99297185185185 420.46603061728393 0 0-27.96202666666667 96.3136474074074-63.17346765432097 96.3136474074074 0 0-440.143012345679-41.425224691358025-558.2049027160494-41.425224691358025-19.67698172839506 0-36.24707160493827-17.60572049382716-36.24707160493827-38.318332839506176z m-224.73184395061725 44.53211654320987l124.27567407407408-5.178153086419753c10.356306172839506-2.0712612345679013 17.60572049382716-10.356306172839506 17.60572049382716-20.712612345679013V489.21612641975304c0-10.356306172839506-7.249414320987654-18.641351111111113-17.60572049382716-20.712612345679013l-124.27567407407408-4.142522469135803c-12.427567407407405-2.0712612345679013-23.81950419753086 7.249414320987654-23.81950419753086 20.712612345679013v468.1050390123457c-1.0356306172839507 13.463198024691359 10.356306172839506 22.78387358024691 23.81950419753086 20.712612345679013z" fill="" p-id="154412"></path></svg>