<?xml version="1.0" standalone="no"?><!DOCTYPE svg PUBLIC "-//W3C//DTD SVG 1.1//EN" "http://www.w3.org/Graphics/SVG/1.1/DTD/svg11.dtd"><svg t="1528458427475" class="icon" style="" viewBox="0 0 1024 1024" version="1.1" xmlns="http://www.w3.org/2000/svg" p-id="159616" xmlns:xlink="http://www.w3.org/1999/xlink" width="200" height="200"><defs><style type="text/css"></style></defs><path d="M192 192h640c19.456 0 31.744-12.8 31.744-31.744s-12.8-31.744-31.744-31.744h-640c-19.456 0-31.744 12.8-31.744 31.744s12.8 31.744 31.744 31.744zM256 64h512c19.456 0 31.744-12.8 31.744-31.744S787.456 0 768 0H256c-19.456 0-31.744 12.8-31.744 31.744s12.288 32.256 31.744 32.256zM883.2 256h-742.4C82.944 256 31.744 307.2 31.744 364.544v543.744c0 64 51.2 108.544 108.544 108.544h742.4c57.344 0 108.544-51.2 108.544-108.544V364.544c1.024-57.344-50.176-108.544-108.032-108.544z m-230.4 512h-108.544v102.4c0 12.8-19.456 25.6-31.744 25.6-19.456 0-31.744-12.8-31.744-25.6v-102.4H371.2c-12.8 0-25.6-19.456-25.6-31.744s12.8-31.744 25.6-31.744h108.544V640H371.2c-12.8 0-25.6-19.456-25.6-31.744s12.8-31.744 25.6-31.744h82.944L358.4 499.2c-12.8-12.8-12.8-31.744 0-45.056s31.744-12.8 45.056 0l108.544 89.6 102.4-96.256c12.8-12.8 31.744-12.8 45.056 0s12.8 31.744 0 45.056L563.2 576h82.944c19.456 0 25.6 12.8 25.6 31.744s-12.8 31.744-25.6 31.744h-102.4v64h102.4c19.456 0 31.744 19.456 31.744 31.744s-12.288 32.768-25.088 32.768z" p-id="159617"></path></svg>