<?xml version="1.0" standalone="no"?><!DOCTYPE svg PUBLIC "-//W3C//DTD SVG 1.1//EN" "http://www.w3.org/Graphics/SVG/1.1/DTD/svg11.dtd"><svg t="1528457286900" class="icon" style="" viewBox="0 0 1024 1024" version="1.1" xmlns="http://www.w3.org/2000/svg" p-id="118584" xmlns:xlink="http://www.w3.org/1999/xlink" width="200" height="200"><defs><style type="text/css"></style></defs><path d="M899.2 476.8h-60.8c-9.6 0-16 6.4-16 16v329.6H233.6V492.8c0-9.6-6.4-16-16-16H156.8c-9.6 0-16 6.4-16 16V899.2c0 9.6 6.4 16 16 16h742.4c9.6 0 16-6.4 16-16V492.8c0-9.6-6.4-16-16-16z" p-id="118585"></path><path d="M329.6 364.8H480v278.4c0 9.6 6.4 16 16 16h60.8c9.6 0 16-6.4 16-16v-278.4h147.2c6.4 0 12.8-3.2 16-9.6s0-12.8-3.2-16l-195.2-220.8c-6.4-6.4-19.2-6.4-22.4 0L320 339.2c-3.2 3.2-6.4 12.8-3.2 16s6.4 9.6 12.8 9.6z" p-id="118586"></path></svg>