<?xml version="1.0" standalone="no"?><!DOCTYPE svg PUBLIC "-//W3C//DTD SVG 1.1//EN" "http://www.w3.org/Graphics/SVG/1.1/DTD/svg11.dtd"><svg t="1528457925140" class="icon" style="" viewBox="0 0 1194 1024" version="1.1" xmlns="http://www.w3.org/2000/svg" p-id="148033" xmlns:xlink="http://www.w3.org/1999/xlink" width="233.203125" height="200"><defs><style type="text/css"></style></defs><path d="M1189.034667 794.282667c9.813333 25.002667 4.864 55.04-0.256 84.736-34.645333 25.002667-163.157333 44.970667-163.157334 44.970666s-4.949333-34.986667-14.848-84.821333c-9.898667-65.024-59.392-119.893333-227.498666-199.850667 29.610667 14.933333-158.208-34.986667-103.850667-119.808 143.36-114.944 108.885333-294.741333 79.104-389.717333 19.968-10.069333 44.629333-15.018667 74.325333-15.018667h9.898667c133.461333 0 173.226667 124.928 178.090667 194.816 4.864 164.864-98.986667 229.802667-98.986667 229.802667s-4.864 9.898667-4.864 34.986667c0 9.984 5.034667 25.088 9.898667 29.952 59.306667 45.056 247.296 90.026667 262.144 189.952z m-608.426667-189.781334c69.205333 54.784 326.314667 114.944 336.213333 239.701334 15.018667 64.853333 133.461333 179.797333-445.098666 179.797333-123.733333 0-217.685333-4.949333-286.890667-14.933333C-67.498667 978.944 6.826667 894.122667 21.589333 844.202667c19.882667-119.893333 272.042667-179.882667 341.333334-234.666667 9.813333-10.069333 19.797333-25.173333 19.797333-30.037333 0-29.952-14.848-49.92-14.848-49.92S244.053333 449.706667 244.053333 244.821333C249.344 154.88 293.717333 0 466.944 0h9.813333c168.277333 0 217.685333 159.914667 222.634667 244.906667 0 214.698667-123.562667 284.757333-123.562667 284.757333s-9.898667 9.813333-9.898666 39.850667c0 4.949333 4.864 30.037333 14.848 34.986666z" p-id="148034"></path></svg>