<?xml version="1.0" standalone="no"?><!DOCTYPE svg PUBLIC "-//W3C//DTD SVG 1.1//EN" "http://www.w3.org/Graphics/SVG/1.1/DTD/svg11.dtd"><svg t="1528451453066" class="icon" style="" viewBox="0 0 1025 1024" version="1.1" xmlns="http://www.w3.org/2000/svg" p-id="43455" xmlns:xlink="http://www.w3.org/1999/xlink" width="200.1953125" height="200"><defs><style type="text/css"></style></defs><path d="M1018.412262 904.68736c0.6144-24.33536-7.73376-46.07488-22.84672-65.96992-24.512-32.28032-57.60384-56.13696-93.0368-77.61152-67.03232-40.62592-140.24704-69.81632-216.32128-93.10592-30.29888-9.28-68.64896-27.9808-69.19424-55.83232-0.48896-24.85248 3.35744-47.65056 19.66592-67.87712 40.68736-50.47424 66.99392-109.85088 83.35488-174.95296 14.55744-57.952 18.112-116.34688 7.1552-175.35744-11.08352-59.69152-36.55936-110.22976-81.73952-146.30528C604.585702 15.05408 560.179942 0 513.498342 0c-19.3024 0-38.9824 2.57152-58.96832 7.5392C376.777702 26.85696 324.927462 79.90272 299.760102 163.7056c-18.12736 60.35968-17.85856 122.06848-5.43872 183.5136 15.80032 78.13888 46.7008 122.58816 95.84384 182.07872 1.94816 2.34368 4.30208 4.64 5.3952 7.46496 17.14176 44.20608-20.3584 113.43104-66.15168 129.30688-35.51488 12.32-70.71744 25.62304-105.06496 40.37504-54.74304 23.50464-107.58144 50.22336-153.6832 86.39744-29.01632 22.76224-56.88704 47.17184-66.18496 82.26432-4.77568 17.97888-4.09728 37.29664-4.448 56.04736-0.44544 24.24704 9.152 45.80864 28.80384 62.10048 14.03264 11.63648 46.48832 30.43712 46.48832 30.43712l160.66048-0.30208 709.30048 0c0 0 78.0032-55.78112 73.16352-108.03712C1018.115302 911.82464 1018.322662 908.24448 1018.412262 904.68736zM1010.491622 179.15008 831.337702 179.15008c-7.0656 0-12.7936 5.728-12.7936 12.7936l0 25.59232c0 7.0656 5.728 12.79616 12.7936 12.79616l179.15264 0c7.0656 0 12.7936-5.73056 12.7936-12.79616l0-25.59232C1023.285222 184.87808 1017.557222 179.15008 1010.491622 179.15008zM1010.489062 332.69376 831.340262 332.69376c-7.0656 0-12.79616 5.73056-12.79616 12.79616l0 25.60256c0 7.0656 5.73056 12.79616 12.79616 12.79616l179.14752 0c7.0656 0 12.79616-5.73056 12.79616-12.79616l0-25.60256C1023.285222 338.42304 1017.554662 332.69376 1010.489062 332.69376zM1010.489062 486.24896 780.155622 486.24896c-7.06816 0-12.79616 5.73056-12.79616 12.79616l0 25.60256c0 7.0656 5.728 12.79616 12.79616 12.79616l230.33344 0c7.06816 0 12.79616-5.73056 12.79616-12.79616l0-25.60256C1023.285222 491.97952 1017.557222 486.24896 1010.489062 486.24896zM1010.491622 639.81696l-102.37568 0c-7.0656 0-12.7936 5.73056-12.7936 12.79616l0 25.59232c0 7.06304 5.728 12.7936 12.7936 12.7936l102.37568 0c7.0656 0 12.7936-5.73056 12.7936-12.7936l0-25.59232C1023.285222 645.54752 1017.557222 639.81696 1010.491622 639.81696z" p-id="43456"></path></svg>